<?xml version="1.0" standalone="no"?>
<!DOCTYPE svg PUBLIC "-//W3C//DTD SVG 20010904//EN"
 "http://www.w3.org/TR/2001/REC-SVG-20010904/DTD/svg10.dtd">
<svg version="1.0" xmlns="http://www.w3.org/2000/svg"
 width="1414.000000pt" height="1414.000000pt" viewBox="0 0 1414.000000 1414.000000"
 preserveAspectRatio="xMidYMid meet">
<metadata>
Created by potrace 1.11, written by Peter Selinger 2001-2013
</metadata>
<g transform="translate(0.000000,1414.000000) scale(0.100000,-0.100000)"
fill="#000000" stroke="none">
<path d="M6827 11544 c-1 -1 -61 -5 -134 -8 -72 -4 -142 -9 -155 -11 -12 -2
-52 -6 -88 -10 -105 -11 -123 -13 -155 -19 -16 -3 -48 -8 -70 -11 -161 -21
-479 -97 -680 -162 -392 -127 -824 -340 -1126 -555 -25 -18 -68 -48 -95 -67
-339 -238 -802 -695 -1057 -1042 -206 -280 -382 -578 -501 -849 -26 -58 -51
-114 -56 -125 -64 -144 -193 -561 -216 -695 -2 -14 -8 -43 -14 -65 -11 -48
-27 -134 -35 -190 -3 -23 -7 -50 -9 -60 -2 -11 -7 -49 -11 -85 -3 -36 -8 -72
-10 -80 -3 -13 -10 -89 -21 -240 -5 -63 -4 -512 0 -587 5 -68 15 -190 21 -238
16 -141 17 -148 34 -250 23 -134 30 -173 46 -240 9 -38 18 -79 21 -90 11 -59
79 -293 110 -380 87 -244 217 -531 329 -725 21 -36 43 -74 49 -85 48 -85 245
-373 310 -452 8 -10 31 -38 51 -63 125 -154 184 -219 365 -401 174 -175 270
-261 450 -406 280 -226 677 -459 1031 -606 186 -77 470 -172 602 -202 12 -2
51 -11 87 -20 69 -16 192 -41 250 -50 19 -3 60 -10 90 -15 81 -13 120 -19 186
-25 32 -4 73 -8 89 -10 204 -26 840 -27 1025 0 14 2 54 7 90 10 36 4 72 9 80
10 8 2 38 6 65 9 67 9 160 24 215 36 25 5 56 12 70 14 228 43 652 179 884 286
381 174 775 421 1047 656 640 554 1081 1146 1353 1815 47 116 141 383 151 429
2 8 11 44 20 80 9 36 18 72 20 80 2 8 13 53 24 100 21 89 50 240 56 300 3 19
7 46 9 60 3 14 8 57 12 95 3 39 8 78 10 87 18 99 25 657 11 843 -9 113 -36
341 -53 435 -9 57 -16 89 -31 160 -8 41 -18 86 -20 100 -3 14 -19 75 -35 135
-174 650 -492 1238 -962 1780 -110 126 -428 438 -555 544 -390 325 -762 549
-1217 735 -128 51 -398 141 -489 162 -5 1 -46 11 -90 22 -69 18 -195 46 -260
57 -123 23 -252 41 -350 50 -27 3 -66 7 -85 10 -106 13 -671 29 -683 19z m448
-988 c129 -10 168 -14 210 -20 22 -3 60 -8 85 -11 290 -39 690 -165 974 -307
251 -125 540 -321 751 -508 110 -97 363 -358 447 -461 205 -251 398 -561 497
-799 13 -30 31 -73 41 -95 51 -112 145 -417 176 -570 8 -41 34 -181 38 -210
17 -116 20 -146 32 -290 15 -189 9 -627 -11 -746 -2 -13 -6 -49 -9 -79 -7 -59
-9 -72 -27 -170 -6 -36 -13 -75 -14 -87 -2 -11 -6 -30 -10 -42 -3 -11 -9 -33
-11 -48 -11 -57 -57 -221 -90 -321 -210 -626 -587 -1163 -1134 -1618 -146
-121 -387 -293 -460 -327 -8 -4 -42 -23 -75 -42 -246 -143 -608 -281 -895
-341 -41 -9 -84 -18 -95 -20 -28 -6 -75 -14 -110 -18 -41 -5 -125 -17 -154
-22 -69 -10 -257 -18 -426 -18 -237 0 -355 10 -565 45 -125 21 -131 22 -205
39 -27 6 -59 13 -69 16 -141 28 -425 133 -622 229 -356 173 -637 373 -948 675
-429 417 -730 893 -905 1433 -36 111 -82 286 -95 362 -3 17 -8 41 -11 55 -14
69 -33 194 -40 272 -4 32 -8 67 -10 78 -6 32 -18 284 -18 385 0 91 11 334 18
390 2 17 6 55 10 85 10 88 15 122 25 175 5 28 12 61 14 75 13 73 27 137 42
193 9 34 18 71 20 82 8 46 98 306 141 408 284 677 819 1291 1482 1701 95 59
365 198 411 211 14 4 30 11 35 15 29 23 403 144 505 164 14 3 68 14 120 25 94
19 128 25 225 36 28 4 64 8 80 10 17 3 84 7 150 11 66 4 121 7 122 8 5 4 283
-2 358 -8z"/>
<path d="M6285 8070 c0 -447 3 -680 10 -681 64 -4 1335 0 1342 4 7 5 11 237
11 682 l0 675 -682 0 -681 0 0 -680z"/>
<path d="M6291 6315 c-9 -13 -8 -1341 1 -1351 6 -5 1239 -10 1339 -5 15 1 16
61 15 683 l-1 681 -673 1 c-439 1 -676 -2 -681 -9z"/>
</g>
</svg>
